<svg xmlns="http://www.w3.org/2000/svg" xml:space="preserve" id="Businessgraph" x="0" y="0" enable-background="new 0 0 64 64" version="1.1" viewBox="0 0 64 64">
  <g fill="#0c5437" class="color000000 svgShape">
    <path d="M60.76,2.66H3.24C1.46,2.66,0,4.11,0,5.89v34.26c0,1.79,1.46,3.24,3.24,3.24h17.07l-3.89,14.43
		c-0.23,0.84-0.06,1.72,0.48,2.42c0.53,0.69,1.34,1.1,2.21,1.1c1.27,0,2.38-0.86,2.69-2.08l4.14-15.87h3.32v15.25
		c0,1.49,1.22,2.7,2.7,2.7c1.49,0,2.7-1.22,2.7-2.7V43.39h3.4l4.13,15.87c0.33,1.22,1.44,2.08,2.7,2.08c0.88,0,1.68-0.41,2.22-1.1
		c0.53-0.69,0.7-1.58,0.47-2.41L43.7,43.39h17.06c1.78,0,3.24-1.45,3.24-3.24V5.89C64,4.11,62.54,2.66,60.76,2.66z M62.43,40.15
		c0,0.92-0.75,1.67-1.67,1.67H3.24c-0.92,0-1.67-0.75-1.67-1.67V8.95h60.87V40.15z" fill="#0c5437" class="color000000 svgShape"></path>
    <path d="M48.66 37.98c0 .44-.35.78-.78.78H16.12c-.44 0-.78-.35-.78-.78 0-.43.35-.78.78-.78h.93v-4.84c0-.97.79-1.76 1.76-1.76h2.93c.97 0 1.76.79 1.76 1.76v4.84h1.33v-8.23c0-.97.78-1.76 1.75-1.76h2.94c.97 0 1.76.79 1.76 1.76v8.23h1.39V25.46c0-.97.79-1.76 1.76-1.76h2.93c.97 0 1.76.79 1.76 1.76V37.2h1.18V22.93c0-.97.78-1.75 1.75-1.75h2.94c.97 0 1.76.78 1.76 1.75V37.2h1.1C48.32 37.2 48.66 37.56 48.66 37.98zM16.79 28.22c-.02.21.05.41.19.57.15.17.37.27.6.27.19 0 .37-.07.51-.19l11.44-9.85.3 1.5c.1.51.46.91.94 1.09.16.06.33.09.49.09.34 0 .66-.12.93-.34l8.72-7.2v2c0 .43.35.78.78.78s.78-.35.78-.78v-3.67l0-.06-.01-.04c-.01-.04-.01-.1-.04-.16-.02-.06-.05-.11-.07-.13L42.3 12l-.03-.03c-.04-.05-.09-.08-.14-.12l-.07-.05-.03-.01c-.05-.02-.09-.03-.15-.05-.04-.01-.09-.02-.18-.03h-3.33c-.43 0-.78.35-.78.79s.35.78.78.78h1.15l-8.18 6.76-.3-1.5c-.11-.51-.46-.92-.96-1.09-.15-.05-.31-.08-.48-.08-.35 0-.68.13-.95.35l-11.59 9.97C16.9 27.82 16.8 28.01 16.79 28.22zM11.51 13.12c-3.64 0-6.61 2.97-6.61 6.61 0 3.65 2.97 6.61 6.61 6.61 3.65 0 6.61-2.96 6.61-6.61C18.12 16.09 15.16 13.12 11.51 13.12zM11.51 18.94c1.23 0 2.22 1 2.22 2.22 0 .92-.57 1.74-1.43 2.07v.22c0 .44-.36.78-.79.78-.43 0-.78-.35-.78-.78v-.22c-.85-.33-1.44-1.15-1.44-2.07 0-.44.36-.78.79-.78.43 0 .78.35.78.78 0 .36.29.65.64.65.36 0 .65-.3.65-.65s-.3-.64-.65-.64c-1.22 0-2.22-1-2.22-2.22 0-.93.58-1.74 1.44-2.07v-.22c0-.44.36-.78.78-.78.44 0 .79.35.79.78v.22c.85.33 1.43 1.14 1.43 2.07 0 .43-.35.78-.78.78s-.78-.36-.78-.78c0-.37-.3-.65-.65-.65-.36 0-.64.29-.64.65C10.87 18.66 11.16 18.94 11.51 18.94z" fill="#0c5437" class="color000000 svgShape"></path>
  </g>
</svg>
