<svg xmlns="http://www.w3.org/2000/svg" viewBox="0 0 100 100" id="Carbondioxidesensor">
  <path fill="#0c5437" d="M49.524 15a1.5 1.5 0 0 0 1.5-1.5v-7a1.5 1.5 0 1 0-3 0v7a1.5 1.5 0 0 0 1.5 1.5zm-19.248 4.168a1.498 1.498 0 0 0 2.049.548 1.5 1.5 0 0 0 .549-2.049l-3.5-6.063a1.499 1.499 0 1 0-2.598 1.5l3.5 6.064zM11.585 29.395l6.063 3.499a1.496 1.496 0 0 0 2.049-.55 1.5 1.5 0 0 0-.549-2.049l-6.063-3.499a1.5 1.5 0 1 0-1.5 2.599zm69.169 3.701c.255 0 .513-.065.749-.202l6.062-3.501a1.5 1.5 0 1 0-1.5-2.597l-6.062 3.501a1.5 1.5 0 0 0 .751 2.799zM66.825 19.717a1.502 1.502 0 0 0 2.049-.549l3.5-6.063a1.5 1.5 0 1 0-2.598-1.5l-3.5 6.063a1.5 1.5 0 0 0 .549 2.049zm-17.337.195L10.503 47.733V95h78.994V47.733L49.488 19.912zM82.497 88H17.503V51.337l32.038-22.863 32.956 22.917V88z" class="color1e4153 svgShape"></path>
  <path fill="#0c5437" d="M37.55 56.86c1.65 0 3.027.464 4.157 1.374.427.411.854.497 1.136.497.405 0 .771-.152 1.054-.437.289-.287.441-.653.441-1.059 0-.413-.152-.783-.497-1.119-1.826-1.498-3.942-2.258-6.291-2.258-2.726 0-5.089.98-7.022 2.915-1.928 1.927-2.904 4.286-2.904 7.011 0 1.341.256 2.622.76 3.805a10.74 10.74 0 0 0 2.157 3.23 10.715 10.715 0 0 0 3.204 2.131 9.644 9.644 0 0 0 3.806.76 9.71 9.71 0 0 0 3.307-.566 10.719 10.719 0 0 0 2.935-1.633l.092-.083c.254-.27.388-.622.388-1.016 0-.413-.152-.782-.439-1.067a1.489 1.489 0 0 0-1.95-.156c-1.25 1.022-2.666 1.519-4.331 1.519-1.934 0-3.536-.663-4.899-2.025-1.361-1.361-2.023-2.963-2.023-4.899 0-1.927.662-3.526 2.023-4.887 1.367-1.371 2.97-2.037 4.896-2.037zm6.958 6.916c0 1.342.256 2.621.759 3.8a10.728 10.728 0 0 0 2.155 3.229 10.706 10.706 0 0 0 3.202 2.129 9.636 9.636 0 0 0 3.801.758c2.731 0 5.089-.976 7.005-2.9 1.934-1.934 2.914-4.294 2.914-7.017 0-2.724-.98-5.081-2.91-7.002-1.91-1.936-4.269-2.917-7.009-2.917-2.723 0-5.083.98-7.016 2.913-1.926 1.927-2.901 4.284-2.901 7.007zm9.917-6.916c1.917 0 3.514.666 4.885 2.035 1.367 1.362 2.032 2.959 2.032 4.882 0 1.93-.665 3.53-2.033 4.893-1.361 1.361-2.959 2.023-4.884 2.023-1.926 0-3.526-.662-4.894-2.023-1.36-1.361-2.022-2.961-2.022-4.893 0-1.924.662-3.521 2.02-4.88 1.384-1.371 2.986-2.037 4.896-2.037zm16.721 11.366-5.181 5.627a1.52 1.52 0 0 0-.411 1.034 1.505 1.505 0 0 0 1.511 1.503h6.06a1.496 1.496 0 0 0 1.502-1.503 1.497 1.497 0 0 0-1.503-1.503h-2.637l2.8-3.044c.889-.883 1.34-1.968 1.34-3.223 0-1.25-.448-2.33-1.326-3.201-.875-.886-1.955-1.335-3.21-1.335-1.236 0-2.315.446-3.219 1.336-.875.888-1.318 1.965-1.318 3.201 0 .411.162.794.451 1.072.573.562 1.572.548 2.121-.006a1.49 1.49 0 0 0 .441-1.066c0-.431.142-.775.434-1.073.621-.613 1.559-.618 2.17 0 .307.303.449.644.449 1.074 0 .207-.037.393-.114.574-.08.19-.193.359-.36.533z" class="color1e4153 svgShape"></path>
</svg>
