<svg xmlns="http://www.w3.org/2000/svg" viewBox="0 0 512 512" id="Revenue">
  <path d="M146.09 141.63a7.49 7.49 0 0 0 5.42-12.63l-22.73-23.79a33 33 0 0 0 23.94-24.39h6.07a7.5 7.5 0 0 0 0-15h-6.08a32.77 32.77 0 0 0-4.44-10.4h10.52a7.5 7.5 0 0 0 0-15h-46.58a7.5 7.5 0 0 0 0 15h8.47a17.93 17.93 0 0 1 16.24 10.4h-24.71a7.5 7.5 0 0 0 0 15h24.71a17.93 17.93 0 0 1-16.24 10.4h-8.47a7.5 7.5 0 0 0-5.42 12.68l33.87 35.46a7.47 7.47 0 0 0 5.43 2.27ZM223.5 265H143v-14.18h17.21a32.65 32.65 0 0 0 32.61-32.61v-25.53a7.49 7.49 0 0 0-7.5-7.5h-24.71a32.45 32.45 0 0 0-17.61 5.18V174.6c44-3.88 78.67-41.47 78.67-87.13C221.67 39.24 183 0 135.5 0S49.33 39.24 49.33 87.47c0 45.66 34.66 83.25 78.67 87.13v15.76a32.45 32.45 0 0 0-17.61-5.18H85.68a7.49 7.49 0 0 0-7.5 7.5v25.53a32.65 32.65 0 0 0 32.61 32.61H128V265H47.5A17.52 17.52 0 0 0 30 282.5v38a17.21 17.21 0 0 0 .2 2.5H17.5A17.52 17.52 0 0 0 0 340.5v38A17.52 17.52 0 0 0 17.5 396h12.7a17.21 17.21 0 0 0-.2 2.5v38a17.21 17.21 0 0 0 .2 2.5H17.5A17.52 17.52 0 0 0 0 456.5v38A17.52 17.52 0 0 0 17.5 512h176a17.52 17.52 0 0 0 17.5-17.5v-38a17.21 17.21 0 0 0-.2-2.5h12.7a17.52 17.52 0 0 0 17.5-17.5v-38a17.52 17.52 0 0 0-17.5-17.5h-12.7a17.21 17.21 0 0 0 .2-2.5v-38a17.21 17.21 0 0 0-.2-2.5h12.7a17.52 17.52 0 0 0 17.5-17.5v-38a17.52 17.52 0 0 0-17.5-17.5Zm-62.89-64.82h17.21v18a17.63 17.63 0 0 1-17.61 17.61H143v-18a17.63 17.63 0 0 1 17.61-17.61ZM64.33 87.47c0-40 31.93-72.47 71.17-72.47s71.17 32.51 71.17 72.47-31.93 72.46-71.17 72.46-71.17-32.51-71.17-72.46Zm46.46 148.35a17.63 17.63 0 0 1-17.61-17.61v-18h17.21A17.63 17.63 0 0 1 128 217.79v18ZM17.5 381a2.5 2.5 0 0 1-2.5-2.5v-38a2.5 2.5 0 0 1 2.5-2.5h176a2.5 2.5 0 0 1 2.5 2.5v38a2.5 2.5 0 0 1-2.5 2.5h-21.7v-12.36a7.5 7.5 0 0 0-15 0V381h-24.2v-12.36a7.5 7.5 0 0 0-15 0V381H93.4v-12.36a7.5 7.5 0 0 0-15 0V381H54.2v-12.36a7.5 7.5 0 0 0-15 0V381ZM196 494.5a2.5 2.5 0 0 1-2.5 2.5h-21.7v-12.36a7.5 7.5 0 0 0-15 0V497h-24.2v-12.36a7.5 7.5 0 0 0-15 0V497H93.4v-12.36a7.5 7.5 0 0 0-15 0V497H54.2v-12.36a7.5 7.5 0 0 0-15 0V497H17.5a2.5 2.5 0 0 1-2.5-2.5v-38a2.5 2.5 0 0 1 2.5-2.5h176a2.5 2.5 0 0 1 2.5 2.5Zm27.5-98.5a2.5 2.5 0 0 1 2.5 2.5v38a2.5 2.5 0 0 1-2.5 2.5h-21.7v-12.36a7.5 7.5 0 0 0-15 0V439h-24.2v-12.36a7.5 7.5 0 0 0-15 0V439h-24.2v-12.36a7.5 7.5 0 0 0-15 0V439H84.2v-12.36a7.5 7.5 0 0 0-15 0V439H47.5a2.5 2.5 0 0 1-2.5-2.5v-38a2.5 2.5 0 0 1 2.5-2.5Zm2.5-75.5a2.5 2.5 0 0 1-2.5 2.5h-21.7v-12.36a7.5 7.5 0 0 0-15 0V323h-24.2v-12.36a7.5 7.5 0 0 0-15 0V323h-24.2v-12.36a7.5 7.5 0 0 0-15 0V323H84.2v-12.36a7.5 7.5 0 0 0-15 0V323H47.5a2.5 2.5 0 0 1-2.5-2.5v-38a2.5 2.5 0 0 1 2.5-2.5h176a2.5 2.5 0 0 1 2.5 2.5Zm149.71-85.23a7.5 7.5 0 0 0 7.5 7.5h24.71a17.93 17.93 0 0 1-16.24 10.4h-8.47a7.5 7.5 0 0 0-5.42 12.68l33.87 35.46A7.5 7.5 0 1 0 422.51 291l-22.73-23.79a33 33 0 0 0 23.94-24.39h6.07a7.5 7.5 0 0 0 0-15h-6.08a32.77 32.77 0 0 0-4.44-10.4h10.52a7.5 7.5 0 1 0 0-15h-46.58a7.5 7.5 0 1 0 0 15h8.47a17.93 17.93 0 0 1 16.24 10.4h-24.71a7.5 7.5 0 0 0-7.5 7.45ZM512 378.5v-38a17.51 17.51 0 0 0-17-17.5 35.78 35.78 0 0 0 6.13-13.88 141.48 141.48 0 0 0-29.33-118.63l-24-29.23a25 25 0 0 0-6.8-43.21l20.38-34.65a14.85 14.85 0 0 0-16.56-21.9l-22.07 5.77a64.28 64.28 0 0 1-32.42 0l-22.07-5.77a14.85 14.85 0 0 0-16.56 21.9l20.3 34.67a25 25 0 0 0-6.8 43.21l-24 29.23a141.48 141.48 0 0 0-29.33 118.63 35.78 35.78 0 0 0 6.18 13.86A17.51 17.51 0 0 0 301 340.5v38a17.21 17.21 0 0 0 .2 2.5h-12.7a17.52 17.52 0 0 0-17.5 17.5v38a17.52 17.52 0 0 0 17.5 17.5h12.7a17.21 17.21 0 0 0-.2 2.5v38a17.52 17.52 0 0 0 17.5 17.5h176a17.52 17.52 0 0 0 17.5-17.5v-38a17.52 17.52 0 0 0-17.5-17.5h-12.7a17.21 17.21 0 0 0 .2-2.5v-38a17.21 17.21 0 0 0-.2-2.5h12.7a17.52 17.52 0 0 0 17.5-17.5ZM364.77 76.12l21.73 5.68a79.26 79.26 0 0 0 40 0l21.73-5.68-23.76 40.4h-35.94Zm16 55.4h51.54a10.07 10.07 0 1 1 0 20.14h-51.58a10.07 10.07 0 1 1 0-20.14ZM352.85 200l27.38-33.38h52.54L460.15 200a126.51 126.51 0 0 1 26.24 106.1A21.21 21.21 0 0 1 465.7 323H347.3a21.21 21.21 0 0 1-20.69-16.87A126.51 126.51 0 0 1 352.85 200ZM310.2 426.64V439h-21.7a2.5 2.5 0 0 1-2.5-2.5v-38a2.5 2.5 0 0 1 2.5-2.5h176a2.5 2.5 0 0 1 2.5 2.5v38a2.5 2.5 0 0 1-2.5 2.5h-21.7v-12.36a7.5 7.5 0 0 0-15 0V439h-24.2v-12.36a7.5 7.5 0 0 0-15 0V439h-24.2v-12.36a7.5 7.5 0 0 0-15 0V439h-24.2v-12.36a7.5 7.5 0 0 0-15 0ZM494.5 454a2.5 2.5 0 0 1 2.5 2.5v38a2.5 2.5 0 0 1-2.5 2.5h-21.7v-12.36a7.5 7.5 0 0 0-15 0V497h-24.2v-12.36a7.5 7.5 0 0 0-15 0V497h-24.2v-12.36a7.5 7.5 0 0 0-15 0V497h-24.2v-12.36a7.5 7.5 0 0 0-15 0V497h-21.7a2.5 2.5 0 0 1-2.5-2.5v-38a2.5 2.5 0 0 1 2.5-2.5Zm-21.7-73v-12.36a7.5 7.5 0 0 0-15 0V381h-24.2v-12.36a7.5 7.5 0 0 0-15 0V381h-24.2v-12.36a7.5 7.5 0 0 0-15 0V381h-24.2v-12.36a7.5 7.5 0 0 0-15 0V381h-21.7a2.5 2.5 0 0 1-2.5-2.5v-38a2.5 2.5 0 0 1 2.5-2.5h176a2.5 2.5 0 0 1 2.5 2.5v38a2.5 2.5 0 0 1-2.5 2.5Z" fill="#0c5437" class="color000000 svgShape"></path>
</svg>
