<svg xmlns="http://www.w3.org/2000/svg" viewBox="0 0 32 32" id="Revenue">
  <path fill="#0d593b" d="M16 0A15.88 15.88 0 0 0 4 5.43V5a1 1 0 0 0-2 0v3a1 1 0 0 0 1 1h3a1 1 0 0 0 0-2h-.72a14 14 0 1 1-2.78 5.27A1 1 0 0 0 1.81 11a1 1 0 0 0-1.23.69A16 16 0 1 0 16 0Z" class="color38004d svgShape"></path>
  <path fill="#85ecc3" d="M17 15v-4h3a1 1 0 0 0 0-2h-3V8a1 1 0 0 0-2 0v1a4 4 0 0 0 0 8v4h-3a1 1 0 0 0 0 2h3v1a1 1 0 0 0 2 0v-1a4 4 0 0 0 0-8Zm-4-2a2 2 0 0 1 2-2v4a2 2 0 0 1-2-2Zm4 8v-4a2 2 0 0 1 0 4Z" class="color9f85ec svgShape"></path>
</svg>
