<svg xmlns="http://www.w3.org/2000/svg" xml:space="preserve" id="saveenergy" x="0" y="0" version="1.1" viewBox="0 0 52 52" enable-background="new 0 0 52 52">
  <g fill="#0c5437" class="color000000 svgShape">
    <path d="M45.4344749,31.8461914l-10.0039063,3.6455078c-0.9519043,0.3469849-1.9260254,0.6073608-2.9145508,0.7866821
		c0.527832-0.7304688,0.8505859-1.6297607,0.8505859-2.6245728c0-2.2973251-1.8556862-4.2070313-4.2060528-4.2070313
		c-0.0019531,0-0.0043945,0-0.0068359,0l-4.6533203,0.0048828c-0.0053711,0-0.0107422,0-0.0161133,0
		c-1.9873047,0-3.956543-0.5078125-5.6958008-1.4677734l-1.1508789-0.6357422
		c-1.21875-0.6738281-2.5996094-1.0292969-3.9941406-1.0292969h-1.3081055v-1.0283203
		c0-1.2080078-0.9829102-2.1914063-2.190918-2.1914063H4.1898475c-1.2080078,0-2.190918,0.9833984-2.190918,2.1914063v18.6337891
		c0,1.2080078,0.9829099,2.1904297,2.190918,2.1904297h5.9545903c1.2080078,0,2.190918-0.9824219,2.190918-2.1904297v-1.0283203
		h0.9956055c1.387207,0,2.730957,0.2900391,3.9936523,0.8623047l7.043457,3.1904297
		c1.2050781,0.5458984,2.5039063,0.8164063,3.8012695,0.8164063c1.5405273,0,3.0791016-0.3818359,4.4545879-1.1396484
		l15.6152344-8.6064453c1.4672852-0.8085938,2.1245117-2.5410156,1.5620117-4.1191406
		C49.1698875,32.1278648,47.2215881,31.2016926,45.4344749,31.8461914z M10.8353558,43.9243164
		c0,0.3808594-0.3100586,0.6904297-0.690918,0.6904297H4.1898475c-0.3808594,0-0.690918-0.3095703-0.690918-0.6904297V25.2905273
		c0-0.3808594,0.3100586-0.6914063,0.690918-0.6914063h5.9545903c0.3808594,0,0.690918,0.3105469,0.690918,0.6914063V43.9243164z
		 M47.5155296,36.7045898l-15.6152325,8.6064453c-2.1220703,1.1689453-4.7060547,1.2705078-6.9130859,0.2705078l-7.043457-3.1904297
		c-1.4589844-0.6601563-3.0107422-0.9951172-4.612793-0.9951172h-0.9956055V27.8188477h1.3081055
		c1.1411133,0,2.2714844,0.2910156,3.269043,0.8417969l1.1508789,0.6357422
		c1.9604492,1.0830078,4.1801758,1.6552734,6.4204102,1.6552734c0.0063477,0,0.012207,0,0.0185547,0l4.6533203-0.0048828
		c0.0014648,0,0.0029297,0,0.0043945,0c1.4216022,0,2.706543,1.1056747,2.706543,2.796875
		c0,1.5566406-1.2583008,2.8222656-2.8051758,2.8222656h-6.7163086c-0.8911133,0-1.7573242,0.1816406-2.5751953,0.5410156
		c-0.3793945,0.1660156-0.5517578,0.6083984-0.3857422,0.9882813c0.1235352,0.28125,0.3989258,0.4482422,0.6875,0.4482422
		c0.1005859,0,0.2026367-0.0205078,0.3007813-0.0634766c0.6269531-0.2744141,1.2905273-0.4140625,1.9726563-0.4140625
		c5.7715168-0.1969109,8.8596497,0.5619583,13.5991192-1.1640625l10.003418-3.6455078
		c0.9834518-0.3585281,2.0844116,0.1465378,2.4404297,1.1474609C48.7025414,35.2856445,48.3353539,36.253418,47.5155296,36.7045898z
		" fill="#0c5437" class="color000000 svgShape"></path>
    <path d="M7.6849647 39.8227539H7.6747108c-.4140625 0-.7446289.3359375-.7446289.75s.3408203.75.7548828.75c.414063 0 .7500005-.3359375.7500005-.75S8.0990276 39.8227539 7.6849647 39.8227539zM29.8338909 4.2348633c-6.3774414 0-11.565918 5.1884766-11.565918 11.5654297 0 6.3779297 5.1884766 11.5664063 11.565918 11.5664063 6.3779278 0 11.5664043-5.1884766 11.5664043-11.5664063C41.4002953 9.4233398 36.2118187 4.2348633 29.8338909 4.2348633zM29.8338909 25.8666992c-5.550293 0-10.065918-4.515625-10.065918-10.0664063 0-5.5498047 4.515625-10.0654297 10.065918-10.0654297 5.5507793 0 10.0664043 4.515625 10.0664043 10.0654297C39.9002953 21.3510742 35.3846703 25.8666992 29.8338909 25.8666992z" fill="#0c5437" class="color000000 svgShape"></path>
    <path d="M33.627346,13.2094727l-2.5161114-0.0507813l0.9677715-3.7353516
		c0.1435547-0.5537109-0.1152325-1.1162109-0.6289043-1.3691406c-0.5131836-0.2519531-1.1176758-0.1113281-1.4682617,0.3408203
		l-5.1806641,6.6845703c-0.3793945,0.4892578-0.4458008,1.1386719-0.1728516,1.6943359
		c0.2724609,0.5556641,0.8261719,0.9013672,1.4453125,0.9013672h2.0498047l-1.0429688,4.5332031
		c-0.1269531,0.5507813,0.1411133,1.1044922,0.652832,1.3457031c0.1655273,0.078125,0.3408203,0.1162109,0.5131836,0.1162109
		c0.3598633,0,0.7089844-0.1640625,0.9418945-0.4677734l5.6831036-7.4033203
		c0.371582-0.4833984,0.4384766-1.1259766,0.1748047-1.6767578C34.7816429,13.5727539,34.2381859,13.222168,33.627346,13.2094727z
		 M33.6820335,14.8852539l-4.822752,6.2832031l0.9370117-4.0751953c0.0512695-0.2226563-0.0019531-0.4560547-0.144043-0.6347656
		c-0.1425781-0.1787109-0.3583984-0.2832031-0.5869141-0.2832031H26.073637c-0.0185547,0-0.0683594,0-0.0986328-0.0615234
		s0.0004883-0.1005859,0.0117188-0.1162109l4.2651367-5.5029297l-0.8305664,3.2060547
		c-0.0576172,0.2226563-0.0102539,0.4589844,0.128418,0.6416016s0.3530273,0.2919922,0.5825195,0.296875l3.4643536,0.0703125
		c0.0185547,0,0.0678711,0.0009766,0.097168,0.0625C33.7225609,14.8325195,33.693264,14.8706055,33.6820335,14.8852539z" fill="#0c5437" class="color000000 svgShape"></path>
  </g>
</svg>
